<svg id="Layer_1" data-name="Layer 1" xmlns="http://www.w3.org/2000/svg" viewBox="0 0 660.6 123"><title>personivlogo</title><path d="M66.4 121a13.2 13.2 0 0 0-22.6 2.6v.3A13.2 13.2 0 0 0 66 137.5l1.5-2.2a13.2 13.2 0 0 0-1-14.3z" transform="translate(-42.6 -92.1)" fill="#ffc700"/><path d="M210.5 109.8h34.8c14.2 0 26.8 0 34.4 10.9 3.3 4.9 4.9 11.9 4.9 17.7a31 31 0 0 1-2.9 13.5c-7.5 15.4-23.4 15.8-35.1 16h-14.4v32.6h-21.7zm21.7 15.9v26.2h13c8.1 0 17.9-.2 17.9-13.6s-10.9-12.6-17.1-12.6zm118.3 58.6a49.9 49.9 0 0 1-7.7 9.5 35.1 35.1 0 0 1-24.1 9.1c-19 0-32.3-12.1-32.3-33 0-15.4 7.6-35.2 32.8-35.2 3.8 0 14.8.4 23 9.2s8.8 21.4 9.1 28.6h-45.7c-.1 8 4.4 15.9 14.6 15.9s13.8-6.7 16.2-11.3zm-18.7-23.6c-.4-2.7-.9-6.2-3.5-9.1a13.3 13.3 0 0 0-9.2-3.5 13 13 0 0 0-9.5 4.2c-2.6 2.8-3.2 5.8-3.8 8.4zm47-17.4c4.2-3.5 8.7-6.4 18.5-7.3v16.6l-6.2 1c-9.1 1.6-11.7 2.9-11.7 11v36h-19v-64h18.4zm33.6 35.7c5.1 5 11.5 8.8 18.6 8.8 4.5 0 11.4-1.5 11.4-6.2a3.9 3.9 0 0 0-2.4-3.7c-2.8-1.5-7.2-1.8-10.9-2.4a72.3 72.3 0 0 1-8.6-2c-3.9-1.1-7.8-2.7-10.6-5.5a17.2 17.2 0 0 1-4.8-12c0-10.5 9.1-21.4 26.9-21.4 15.1 0 24.1 6.5 28.5 9.5l-11.6 10.8c-6-4.7-11.6-6.4-16-6.4-7.3 0-9.1 2.9-9.1 4.8 0 3.7 4 4.4 10.2 5.5 12.9 2.3 27.8 5.8 27.8 20.9s-15.2 22.4-30.2 22.4c-17.7 0-26.9-8.6-31-12.4zM536 168.5c0 16.2-9.3 33.9-34.3 33.9-18 0-34.4-10.3-34.4-33.9 0-19.6 12.4-35.1 36.8-33.8 26.2 1.5 31.9 22.2 31.9 33.8zm-46.5-12.6a23.2 23.2 0 0 0-3.2 12.5c0 10.2 4.9 19.1 15.4 19.1s15.2-8.2 15.2-18.2c0-7.1-1.7-12.6-5.3-16a13.7 13.7 0 0 0-11-3.5c-5.3.2-8.5 2.1-11.1 6.1zm73.3-13.5a18.4 18.4 0 0 1 6.4-5 31.1 31.1 0 0 1 11.6-2.3 24.2 24.2 0 0 1 11.4 2.6c6.7 3.5 8.4 9.3 8.4 19.2v43.7h-18.7v-36c0-5.8-.1-7.8-.9-9.5-1.5-3.4-4.8-4.9-8.4-4.9-9.9 0-9.9 8-9.9 15.9v34.5h-18.8v-63.8h19zm51.8-32.1h18.6v16.1h-18.6zm0 26.2h18.6v64h-18.6zm27.5.1H662c7.8 28.4 9.2 34.3 11.3 46.5 2.6-14.2 2.9-15.8 6.7-30.8l3.9-15.7h19.3l-20.7 63.9h-19.6zM113.4 94.2c-4.7-1.4-14.2-1.9-14.2-1.9-3.9-.2-7.9-.2-12.1-.2H59.5a36.6 36.6 0 0 0 12.8 14.5 36.2 36.2 0 0 0 17.7 5.9h2.3c7.8.4 17.5 2.7 17.5 16.1 0 17.1-12.5 17.4-22.9 17.4h-8.5A36.5 36.5 0 0 0 63 215.2v-31.7a17.2 17.2 0 0 1 17.1-16.9h8.6l8.4-.3a70.8 70.8 0 0 0 13.6-2c9.1-2.4 17.7-7.4 22.9-18.3a39.6 39.6 0 0 0 3.8-17.2s-.1-11.8-4.3-19.4-11.6-11.5-11.6-11.5a30.8 30.8 0 0 0-8.1-3.7z" transform="translate(-42.6 -92.1)" fill="#fff"/></svg>